<?xml version="1.0" encoding="UTF-8"?>
<svg width="32px" height="32px" viewBox="0 0 32 32" version="1.1" xmlns="http://www.w3.org/2000/svg" xmlns:xlink="http://www.w3.org/1999/xlink">
    <g id="Page-1" stroke="none" stroke-width="1" fill="none" fill-rule="evenodd">
        <g id="Extra01_Benefacts_Homepage_003" transform="translate(-114.000000, -1641.000000)" fill="#FFFFFF">
            <g id="Agreements" transform="translate(83.000000, 1627.000000)">
                <g id="Row" transform="translate(2.000000, 0.000000)">
                    <g id="Agreement_Icon_Sqaure">
                        <g id="noun_agreement_1274687" transform="translate(29.000000, 14.000000)">
                            <path d="M5.63559221,6 L0.36448819,6 C0.217159228,6 0.0840649139,5.91138619 0.0278378626,5.77508453 C-0.0287449966,5.63878294 0.00257127396,5.48219621 0.106840337,5.37792371 L5.37794421,0.107002027 C5.48221327,0.00272952824 5.63879485,-0.0289436668 5.77509194,0.0279969495 C5.91138904,0.0842257808 6,0.217324481 6,0.364658371 L6,5.63558006 C6.00000015,5.83700749 5.83701301,6 5.63559221,6 Z M1.24419154,5.27116011 L5.27118427,5.27116011 L5.27118427,1.24439086 L1.24419154,5.27116011 Z" id="Shape" fill-rule="nonzero"></path>
                            <path d="M29.1102748,10 C29.0245419,10 28.9388089,9.96723117 28.8733639,9.90169343 L25.0981676,6.12147878 C25.0353403,6.05856259 25,5.97336359 25,5.88423231 C25,5.79510104 25.0353403,5.70990204 25.0981676,5.64698585 L27.4574607,3.2843517 C27.8370419,2.9052161 28.4970549,2.9052161 28.8753272,3.2843517 L31.706479,6.11951271 C31.8956152,6.30891669 32,6.5612368 32,6.82928603 C32,7.09733525 31.8956152,7.34965536 31.706479,7.53905935 L29.3471859,9.9016935 C29.2817408,9.96723117 29.1960078,10 29.1102748,10 Z M25.8089005,5.88423231 L29.1102748,9.18995404 L31.232657,7.06456635 C31.295157,7.00165016 31.3298429,6.9180896 31.3298429,6.82928603 C31.3298429,6.74048245 31.295157,6.6569219 31.232657,6.5940057 L28.401178,3.7588447 C28.2755235,3.63301231 28.0569371,3.63301231 27.9312827,3.7588447 L25.8089005,5.88423231 Z" id="Shape" fill-rule="nonzero"></path>
                            <path d="M13.1149206,26 C13.0290907,26 12.9432608,25.965602 12.8777418,25.8968059 L9.09827851,21.9286486 C9.03538027,21.8626044 9,21.7731695 9,21.6796069 C9,21.5860442 9.03538027,21.4966093 9.09827851,21.4305651 L24.6479006,5.1031941 C24.7789386,4.96560197 24.9912202,4.96560197 25.1222582,5.1031941 L28.9017215,9.07135136 C28.9646197,9.13739558 29,9.22683045 29,9.32039311 C29,9.41395576 28.9646197,9.50339063 28.9017215,9.56943486 L13.3520993,25.8968059 C13.2865804,25.965602 13.2007505,26 13.1149206,26 Z M9.80981483,21.6796069 L13.1149206,25.1496806 L28.1901852,9.32039311 L24.8850794,5.85031936 L9.80981483,21.6796069 Z" id="Shape" fill-rule="nonzero"></path>
                            <path d="M7.34270547,29 C7.25335255,29 7.16600756,28.9651047 7.10041517,28.8993407 C7.00470383,28.8033788 6.97425021,28.6597715 7.02277515,28.5329408 L9.43563862,22.2427403 C9.45304067,22.1981146 9.47947841,22.1571798 9.51327864,22.1232912 C9.64781003,21.9890788 9.90549443,21.9484796 10.0386872,22.0823564 L13.8996034,25.9530426 C13.9638572,26.0174645 14,26.1047026 14,26.195967 C14,26.2872315 13.9638572,26.3744695 13.8996034,26.4388915 C13.8658033,26.4727801 13.7841474,26.5402219 13.7396383,26.5576695 L7.46585863,28.9771839 C7.42569991,28.9926183 7.38420272,29 7.34270547,29 Z M9.90884098,22.9238683 L7.93939552,28.0581644 L13.0602883,26.0832287 L9.90884098,22.9238683 Z" id="Shape" fill-rule="nonzero"></path>
                            <path d="M20.9988411,32 L1.00115892,32 C0.449099725,32 0,31.5413311 0,30.977175 L0,5.28637597 C0,5.19557689 0.0353004285,5.10878367 0.098056716,5.0446902 L4.93944283,0.100146063 C5.00219912,0.0360525937 5.08718158,0 5.17608632,0 L20.9988409,0 C21.5509001,0 21.9999998,0.458668866 21.9999998,1.02282499 L21.9999998,8.88328815 C21.9999998,8.97408723 21.9646994,9.06088046 21.9019431,9.12497393 L9.53699477,21.7533904 L7.47616979,27.2260379 L12.8346415,25.120968 L21.4286562,16.3438347 C21.5247518,16.2460254 21.6688951,16.2159816 21.7934272,16.2697267 C21.9186129,16.3224702 22,16.447319 22,16.5855206 L22,30.9771751 C22,31.5413311 21.5509003,32 20.9988411,32 Z M0.669400467,5.42791575 L0.669400467,30.9771751 C0.669400467,31.1641144 0.818119816,31.3163364 1.00115899,31.3163364 L20.9988409,31.3163364 C21.1818801,31.3163364 21.3305995,31.1641144 21.3305995,30.9771751 L21.3305995,17.410724 L13.2575928,25.655748 C13.2245804,25.6894638 13.184704,25.7158356 13.1412322,25.7331943 L7.01366907,28.1403715 C6.89011764,28.1897768 6.751204,28.1590654 6.6567427,28.0629251 C6.56326201,27.9674526 6.53351814,27.8245776 6.58091215,27.6983936 L8.93754149,21.4402671 C8.95453796,21.3958691 8.98035955,21.355143 9.01337203,21.3214272 L21.3305996,8.74174851 L21.3305996,1.02282499 C21.3305996,0.835885699 21.1818803,0.683663675 20.9988411,0.683663675 L5.31467329,0.683663675 L0.669400467,5.42791575 Z" id="Shape" fill-rule="nonzero"></path>
                            <path d="M11.330903,24 C11.2462384,24 11.1615737,23.9656663 11.0969442,23.8969988 C10.9676853,23.7596639 10.9676853,23.5371814 11.0969442,23.3998465 L26.4351382,7.10300117 C26.5643972,6.96566628 26.7737968,6.96566628 26.9030558,7.10300117 C27.0323147,7.24033607 27.0323147,7.46281863 26.9030558,7.60015353 L11.5648618,23.8969988 C11.5002323,23.9656662 11.4155677,24 11.330903,24 Z" id="Path"></path>
                            <path d="M11.6478548,14 L3.3521455,14 C3.15750257,14 3,13.7763672 3,13.5 C3,13.2236328 3.15750257,13 3.3521455,13 L11.6478545,13 C11.8424974,13 12,13.2236328 12,13.5 C12,13.7763672 11.8424978,14 11.6478548,14 Z" id="Path"></path>
                            <path d="M8.658268,17 L3.341732,17 C3.15284497,17 3,16.7763672 3,16.5 C3,16.2236328 3.15284497,16 3.341732,16 L8.658268,16 C8.84715503,16 9,16.2236328 9,16.5 C9,16.7763672 8.84715503,17 8.658268,17 Z" id="Path"></path>
                            <path d="M18.6665581,29 L7.33344188,29 C7.14913708,29 7,28.7763672 7,28.5 C7,28.2236328 7.14913708,28 7.33344188,28 L18.6665581,28 C18.8508629,28 19,28.2236328 19,28.5 C19,28.7763672 18.8508629,29 18.6665581,29 Z" id="Path"></path>
                            <path d="M11.6478548,10 L3.3521455,10 C3.15750257,10 3,9.7763672 3,9.5 C3,9.2236328 3.15750257,9 3.3521455,9 L11.6478545,9 C11.8424974,9 12,9.2236328 12,9.5 C12,9.7763672 11.8424978,10 11.6478548,10 Z" id="Path"></path>
                            <path d="M17.6478545,6 L9.3521455,6 C9.15750257,6 9,5.7763672 9,5.5 C9,5.2236328 9.15750257,5 9.3521455,5 L17.6478545,5 C17.8424974,5 18,5.2236328 18,5.5 C18,5.7763672 17.8424974,6 17.6478545,6 Z" id="Path"></path>
                        </g>
                    </g>
                </g>
            </g>
        </g>
    </g>
</svg>
