<?xml version="1.0" encoding="UTF-8"?>
<svg width="25px" height="29px" viewBox="0 0 25 29" version="1.1" xmlns="http://www.w3.org/2000/svg" xmlns:xlink="http://www.w3.org/1999/xlink">
    <g id="Page-1" stroke="none" stroke-width="1" fill="none" fill-rule="evenodd">
        <g id="Extra01_Benefacts_Analytics_Analysis_003" transform="translate(-845.000000, -16.000000)" fill="#FFFFFF">
            <g id="Header">
                <g id="Analysis" transform="translate(797.500000, 0.000000)">
                    <g id="noun_File-Search_973547_000000" transform="translate(48.000000, 16.000000)">
                        <path d="M4.63686486,29 L9.28832432,29 C9.54810811,29 9.75924324,28.7905556 9.75924324,28.5321333 C9.75924324,28.2737111 9.54843243,28.0642667 9.28832432,28.0642667 L4.63686486,28.0642667 C2.72594595,28.0642667 1.17178378,26.5198556 1.17178378,24.6216444 L1.17178378,4.37803333 C1.17178378,2.47982222 2.72594595,0.935411111 4.63686486,0.935411111 L19.3631351,0.935411111 C21.2740541,0.935411111 22.8282162,2.47982222 22.8282162,4.37803333 L22.8282162,14.6495111 C22.8282162,14.9079333 23.039027,15.1173778 23.2991351,15.1173778 C23.5589189,15.1173778 23.7700541,14.9079333 23.7700541,14.6495111 L23.7700541,4.37803333 C23.7697297,1.96394444 21.7932973,0 19.3631351,0 L4.63686486,0 C2.2067027,0 0.23027027,1.96394444 0.23027027,4.37803333 L0.23027027,24.6219667 C0.23027027,27.0360556 2.2067027,29 4.63686486,29 Z" id="Path"></path>
                        <path d="M18.1138378,11.6928 C18.1138378,11.4343778 17.903027,11.2249333 17.6429189,11.2249333 L6.34410811,11.2249333 C6.08432432,11.2249333 5.87318919,11.4343778 5.87318919,11.6928 C5.87318919,11.9512222 6.084,12.1606667 6.34410811,12.1606667 L17.6432432,12.1606667 C17.903027,12.1606667 18.1138378,11.9512222 18.1138378,11.6928 Z" id="Path"></path>
                        <path d="M8.68572973,17.3252444 C8.68572973,17.0668222 8.47491892,16.8573778 8.21481081,16.8573778 L6.35027027,16.8573778 C6.09048649,16.8573778 5.87935135,17.0668222 5.87935135,17.3252444 C5.87935135,17.5836667 6.09016216,17.7931111 6.35027027,17.7931111 L8.21481081,17.7931111 C8.47491892,17.7927889 8.68572973,17.5836667 8.68572973,17.3252444 Z" id="Path"></path>
                        <path d="M6.34410811,6.53273333 L17.6432432,6.53273333 C17.903027,6.53273333 18.1141622,6.32328889 18.1141622,6.06486667 C18.1141622,5.80644444 17.9033514,5.597 17.6432432,5.597 L6.34410811,5.597 C6.08432432,5.597 5.87318919,5.80644444 5.87318919,6.06486667 C5.87318919,6.32328889 6.084,6.53273333 6.34410811,6.53273333 Z" id="Path"></path>
                        <path d="M6.35059459,22.4891778 C6.09081081,22.4891778 5.87967568,22.6986222 5.87967568,22.9570444 C5.87967568,23.2154667 6.09048649,23.4249111 6.35059459,23.4249111 L6.97232432,23.4249111 C7.23210811,23.4249111 7.44324324,23.2154667 7.44324324,22.9570444 C7.44324324,22.6986222 7.23243243,22.4891778 6.97232432,22.4891778 L6.35059459,22.4891778 Z" id="Path"></path>
                        <path d="M16.8677838,27.4465667 C18.1705946,27.4465667 19.3644324,26.9793444 20.2923243,26.2063333 L22.9660541,28.8630556 C23.0581622,28.9542444 23.1784865,29 23.2991351,29 C23.4194595,29 23.5401081,28.9542444 23.6318919,28.8630556 C23.8157838,28.6803556 23.8157838,28.3842333 23.6318919,28.2015333 L20.9581622,25.5448111 C21.7362162,24.6229333 22.2064865,23.4368333 22.2064865,22.1424667 C22.2064865,19.2179778 19.8116757,16.8383667 16.8681081,16.8383667 C13.9245405,16.8383667 11.5294054,19.2176556 11.5294054,22.1424667 C11.5294054,25.0672778 13.9242162,27.4465667 16.8677838,27.4465667 Z M16.8677838,17.7741 C19.2921081,17.7741 21.2646486,19.7338556 21.2646486,22.1424667 C21.2646486,24.5510778 19.2924324,26.5108333 16.8677838,26.5108333 C14.4431351,26.5108333 12.4705946,24.5510778 12.4705946,22.1424667 C12.4709189,19.7338556 14.4434595,17.7741 16.8677838,17.7741 Z" id="Shape" fill-rule="nonzero"></path>
                    </g>
                </g>
            </g>
        </g>
    </g>
</svg>
