<?xml version="1.0" encoding="utf-8"?>
<svg version="1.1" id="Layer_1" xmlns="http://www.w3.org/2000/svg" xmlns:xlink="http://www.w3.org/1999/xlink" x="0px" y="0px"
	 viewBox="0 0 90.83 113.72" style="enable-background:new 0 0 90.83 113.72;" xml:space="preserve">
<style type="text/css">
	.st0{fill:#FFFFFF;}
	.st1{fill:#F58221;}
</style>
<g>
	<path class="st0" d="M31.06,60.21h4.7c5.49,0,8.1-2.55,8.1-6.27c0-3.85-3.2-5.81-7.64-5.81h-5.16V60.21L31.06,60.21z M31.06,29.84
		v10.19h4.64c3.27,0,5.94-1.63,5.94-5.16c0-3.53-2.81-5.03-5.94-5.03H31.06L31.06,29.84z M44.84,43.29v0.13
		c5.29,2.16,8.49,6.01,8.49,11.3c0,7.32-5.42,13.12-15.09,13.12H21.98V22.13h14.76c9.4,0,14.11,5.81,14.11,11.69
		C50.85,37.8,48.89,41.4,44.84,43.29"/>
	<polygon class="st0" points="8.28,8.28 8.28,82.36 90.63,82.36 90.63,90.64 0,90.64 0,0 90.63,0 90.63,8.28 	"/>
	<g>
		<g>
			<rect x="69.95" y="19.11" class="st1" width="5.64" height="51.76"/>
		</g>
	</g>
	<path class="st0" d="M8.06,113.57l-0.79-2.6H3.29l-0.79,2.6H0l3.86-10.97h2.83l3.87,10.97H8.06z M6.72,109.03
		c-0.73-2.36-1.14-3.69-1.24-4c-0.09-0.31-0.16-0.55-0.2-0.73c-0.16,0.64-0.63,2.21-1.41,4.73H6.72z"/>
	<path class="st0" d="M22.57,113.57h-2.94l-4.75-8.26h-0.07c0.1,1.46,0.14,2.5,0.14,3.12v5.14h-2.07v-10.92h2.92l4.74,8.18h0.05
		c-0.08-1.42-0.11-2.42-0.11-3.01v-5.17h2.08V113.57z"/>
	<path class="st0" d="M32.95,113.57l-0.79-2.6h-3.98l-0.79,2.6h-2.49l3.85-10.97h2.83l3.87,10.97H32.95z M31.61,109.03
		c-0.73-2.36-1.14-3.69-1.24-4c-0.09-0.31-0.16-0.55-0.2-0.73c-0.16,0.64-0.63,2.21-1.41,4.73H31.61z"/>
	<path class="st0" d="M37.77,113.57v-10.92h2.31v9.01h4.43v1.91H37.77z"/>
	<path class="st0" d="M50.76,107.15l2.28-4.5h2.49l-3.62,6.67v4.25h-2.3v-4.18l-3.62-6.75h2.51L50.76,107.15z"/>
	<path class="st0" d="M62.07,113.57h-2.32v-8.99h-2.96v-1.93h8.25v1.93h-2.96V113.57z"/>
	<path class="st0" d="M67.67,113.57v-10.92h2.31v10.92H67.67z"/>
	<path class="st0" d="M78.32,104.42c-0.87,0-1.55,0.33-2.03,0.98s-0.72,1.57-0.72,2.74c0,2.43,0.91,3.65,2.74,3.65
		c0.77,0,1.7-0.19,2.79-0.58v1.94c-0.9,0.37-1.9,0.56-3,0.56c-1.59,0-2.8-0.48-3.65-1.45s-1.26-2.35-1.26-4.15
		c0-1.14,0.21-2.13,0.62-2.98c0.41-0.85,1.01-1.51,1.78-1.96c0.77-0.46,1.68-0.68,2.72-0.68c1.06,0,2.13,0.26,3.2,0.77l-0.75,1.88
		c-0.41-0.19-0.82-0.36-1.23-0.51C79.12,104.49,78.72,104.42,78.32,104.42z"/>
	<path class="st0" d="M90.83,110.54c0,0.99-0.36,1.76-1.06,2.33s-1.7,0.85-2.96,0.85c-1.16,0-2.2-0.22-3.09-0.66v-2.15
		c0.74,0.33,1.36,0.56,1.87,0.69s0.98,0.2,1.4,0.2c0.51,0,0.9-0.1,1.17-0.29s0.41-0.48,0.41-0.87c0-0.21-0.06-0.4-0.18-0.57
		c-0.12-0.17-0.29-0.33-0.53-0.48c-0.23-0.15-0.7-0.4-1.42-0.74c-0.67-0.31-1.17-0.62-1.5-0.9c-0.33-0.29-0.6-0.62-0.8-1.01
		c-0.2-0.38-0.3-0.83-0.3-1.34c0-0.97,0.33-1.73,0.98-2.28c0.65-0.55,1.56-0.83,2.71-0.83c0.57,0,1.11,0.07,1.62,0.2
		s1.05,0.32,1.62,0.57l-0.75,1.8c-0.58-0.24-1.06-0.41-1.45-0.5c-0.38-0.09-0.76-0.14-1.12-0.14c-0.44,0-0.78,0.1-1.01,0.31
		c-0.23,0.2-0.35,0.47-0.35,0.8c0,0.2,0.05,0.38,0.14,0.53c0.1,0.15,0.25,0.3,0.45,0.44c0.21,0.14,0.7,0.4,1.47,0.77
		c1.02,0.49,1.72,0.98,2.1,1.47C90.64,109.22,90.83,109.83,90.83,110.54z"/>
</g>
</svg>
