<?xml version="1.0" encoding="UTF-8" standalone="no"?>
<svg version="1.1" id="Layer_1" xmlns="http://www.w3.org/2000/svg" xmlns:xlink="http://www.w3.org/1999/xlink" x="0px" y="0px"
	 viewBox="0 0 90.83 113.72" style="enable-background:new 0 0 90.83 113.72;" xml:space="preserve">
<style
   type="text/css"
   id="style16">
	.st0{fill:#FFFFFF;}
	.st1{fill:#F58221;}
</style>
<g
   id="g46">
	<path
   class="st0"
   d="M31.06,60.21h4.7c5.49,0,8.1-2.55,8.1-6.27c0-3.85-3.2-5.81-7.64-5.81h-5.16V60.21L31.06,60.21z M31.06,29.84   v10.19h4.64c3.27,0,5.94-1.63,5.94-5.16c0-3.53-2.81-5.03-5.94-5.03H31.06L31.06,29.84z M44.84,43.29v0.13   c5.29,2.16,8.49,6.01,8.49,11.3c0,7.32-5.42,13.12-15.09,13.12H21.98V22.13h14.76c9.4,0,14.11,5.81,14.11,11.69   C50.85,37.8,48.89,41.4,44.84,43.29"
   id="path18" />
	<polygon
   class="st0"
   points="8.28,8.28 8.28,82.36 90.63,82.36 90.63,90.64 0,90.64 0,0 90.63,0 90.63,8.28  "
   id="polygon20" />
	<g
   id="g26">
		<g
   id="g24">
			<rect
   x="69.95"
   y="19.11"
   class="st1"
   width="5.64"
   height="51.76"
   id="rect22" />
		</g>
	</g>
	
	
	
	
	
	
	
	
	
<text
   xml:space="preserve"
   style="font-style:normal;font-weight:normal;font-size:40px;line-height:1.25;font-family:sans-serif;fill:#000000;fill-opacity:1;stroke:none"
   x="28.76"
   y="109.03"
   id="text57"><tspan
     id="tspan55"
     x="28.76"
     y="109.03"></tspan></text><text
   xml:space="preserve"
   style="font-style:normal;font-weight:normal;font-size:25.3776px;line-height:1.25;font-family:sans-serif;fill:#000000;fill-opacity:0;stroke:none;stroke-width:0.634439;image-rendering:auto;"
   x="4.2568336"
   y="156.92613"
   id="text63"
   transform="scale(1.4712703,0.67968476)"><tspan
     id="tspan61"
     x="4.2568336"
     y="156.92613"
     style="fill:#000000;fill-opacity:0;stroke-width:0.634439;">jjj</tspan></text></g>
</svg>
