<svg id="Layer_1" data-name="Layer 1" xmlns="http://www.w3.org/2000/svg" viewBox="0 0 290.184 90.643"><defs><style>.cls-1{fill:#fff;}.cls-2{fill:#f58221;}</style></defs><title>b_horizontal</title><path class="cls-1" d="M31.054,60.205h4.7c5.486,0,8.1-2.549,8.1-6.274,0-3.851-3.2-5.811-7.641-5.811h-5.16V60.205Zm0-30.37V40.021H35.69c3.265,0,5.943-1.627,5.943-5.158s-2.809-5.028-5.943-5.028ZM44.833,43.288v.131c5.291,2.157,8.49,6.01,8.49,11.3,0,7.316-5.422,13.124-15.086,13.124H21.976V22.128H36.735c9.405,0,14.106,5.814,14.106,11.692a10.077,10.077,0,0,1-6.008,9.468"/><polygon class="cls-1" points="8.28 8.28 8.28 82.363 90.621 82.363 90.621 90.643 0 90.643 0 0 90.621 0 90.621 8.28 8.28 8.28"/><rect class="cls-2" x="69.938" y="19.11" width="5.64" height="51.76"/><path class="cls-1" d="M111.971,56.1l-1.7-5.581h-8.548l-1.7,5.581H94.665l8.276-23.545h6.078L117.327,56.1Zm-2.887-9.751q-2.358-7.587-2.654-8.581T106,36.192q-.53,2.053-3.031,10.154Z"/><path class="cls-1" d="M143.183,56.1h-6.32l-10.2-17.739h-.144q.3,4.7.3,6.7V56.1h-4.442V32.648h6.27l10.185,17.563h.112q-.24-4.572-.24-6.464v-11.1h4.475Z"/><path class="cls-1" d="M165.542,56.1l-1.7-5.581h-8.549l-1.7,5.581h-5.357l8.277-23.545h6.078L170.9,56.1Zm-2.887-9.751Q160.3,38.759,160,37.765t-.426-1.573q-.528,2.053-3.031,10.154Z"/><path class="cls-1" d="M175.952,56.1V32.648h4.972V51.991h9.511V56.1Z"/><path class="cls-1" d="M203.908,42.3l4.892-9.656h5.356l-7.778,14.323V56.1h-4.941V47.131l-7.778-14.483h5.389Z"/><path class="cls-1" d="M228.256,56.1h-4.973V36.786h-6.367V32.648h17.707v4.138h-6.367Z"/><path class="cls-1" d="M240.334,56.1V32.648h4.972V56.1Z"/><path class="cls-1" d="M263.27,36.449a5.063,5.063,0,0,0-4.346,2.11,9.806,9.806,0,0,0-1.54,5.877q0,7.843,5.886,7.843a18.614,18.614,0,0,0,5.983-1.234v4.17a16.613,16.613,0,0,1-6.447,1.2q-5.118,0-7.828-3.1t-2.71-8.91A14.543,14.543,0,0,1,253.6,38a9.612,9.612,0,0,1,3.825-4.218,11.313,11.313,0,0,1,5.845-1.468,15.771,15.771,0,0,1,6.865,1.653l-1.6,4.041a26.587,26.587,0,0,0-2.646-1.09A7.876,7.876,0,0,0,263.27,36.449Z"/><path class="cls-1" d="M290.184,49.585a6.061,6.061,0,0,1-2.286,5,9.925,9.925,0,0,1-6.359,1.828,14.935,14.935,0,0,1-6.64-1.411V50.387a27.311,27.311,0,0,0,4.018,1.492,11.919,11.919,0,0,0,3.007.432,4.279,4.279,0,0,0,2.511-.625,2.141,2.141,0,0,0,.874-1.861,2.051,2.051,0,0,0-.386-1.226,4.276,4.276,0,0,0-1.13-1.035,28.926,28.926,0,0,0-3.04-1.587,14.437,14.437,0,0,1-3.224-1.941,7.288,7.288,0,0,1-1.716-2.166,6.185,6.185,0,0,1-.641-2.887,6.058,6.058,0,0,1,2.109-4.891,8.761,8.761,0,0,1,5.83-1.781,13.8,13.8,0,0,1,3.489.433,23.9,23.9,0,0,1,3.471,1.22l-1.6,3.865a23.3,23.3,0,0,0-3.1-1.075,9.989,9.989,0,0,0-2.414-.3,3.2,3.2,0,0,0-2.165.658,2.168,2.168,0,0,0-.754,1.716,2.124,2.124,0,0,0,.305,1.147,3.353,3.353,0,0,0,.971.946,29.956,29.956,0,0,0,3.151,1.645,12.523,12.523,0,0,1,4.507,3.151A6.153,6.153,0,0,1,290.184,49.585Z"/></svg>