<?xml version="1.0" encoding="UTF-8"?>
<svg width="29px" height="29px" viewBox="0 0 29 29" version="1.1" xmlns="http://www.w3.org/2000/svg" xmlns:xlink="http://www.w3.org/1999/xlink">
    <g id="Page-1" stroke="none" stroke-width="1" fill="none" fill-rule="evenodd">
        <g id="Extra01_Benefacts_Analytics_Analysis_003" transform="translate(-964.000000, -17.000000)" fill="#FFFFFF">
            <g id="Header">
                <g id="Dashboard" transform="translate(918.000000, 0.000000)">
                    <g id="noun_report_1789788_000000" transform="translate(46.000000, 17.000000)">
                        <path d="M28.6375,0.353140498 L6.6796997,0.353140498 C6.47933348,0.353140498 6.3171997,0.511492487 6.3171997,0.706799034 L6.3171997,2.75902874 L0.317895499,3.48460722 C0.222668453,3.49600443 0.135583483,3.54418347 0.0764648438,3.61809259 C0.017346205,3.69200171 -0.0092040925,3.78594225 0.00283203125,3.87901938 L3.11381834,28.3612388 C3.12550048,28.4546613 3.17506101,28.5396222 3.25152586,28.597299 C3.31524654,28.6456507 3.39348144,28.6713808 3.47348631,28.6713808 C3.4890625,28.6713808 3.50463865,28.6703447 3.52021481,28.6684451 L17.3755737,26.9084413 C17.392411,26.9063043 17.405841,26.8973032 17.4217712,26.8930724 L28.6375,26.8930724 C28.8378662,26.8930724 29,26.7347204 29,26.5394138 L29,0.706799034 C29,0.511492487 28.8378662,0.353140498 28.6375,0.353140498 Z M3.7881958,27.9210652 L0.76677247,4.14288182 L6.3171997,3.4716127 L6.3171997,26.5394138 C6.3171997,26.7347204 6.47933348,26.8930724 6.6796997,26.8930724 L11.8810127,26.8930724 L3.7881958,27.9210652 Z M28.275,26.1857553 L7.0421997,26.1857553 L7.0421997,1.06045757 L28.275,1.06045757 L28.275,26.1857553 Z" id="Shape" fill-rule="nonzero"></path>
                        <path d="M11.5734497,21.6945682 L23.74375,21.6945682 C23.9441162,21.6945682 24.10625,21.5362162 24.10625,21.3409096 C24.10625,21.1456031 23.9441162,20.9872511 23.74375,20.9872511 L11.5734497,20.9872511 C11.3730835,20.9872511 11.2109497,21.1456031 11.2109497,21.3409096 C11.2109497,21.5362162 11.3730835,21.6945682 11.5734497,21.6945682 Z" id="Path"></path>
                        <path d="M11.5734497,17.8357529 L23.74375,17.8357529 C23.9441162,17.8357529 24.10625,17.6774009 24.10625,17.4820944 C24.10625,17.2867878 23.9441162,17.1284358 23.74375,17.1284358 L11.5734497,17.1284358 C11.3730835,17.1284358 11.2109497,17.2867878 11.2109497,17.4820944 C11.2109497,17.6774009 11.3730835,17.8357529 11.5734497,17.8357529 Z" id="Path"></path>
                        <path d="M11.5734497,13.976765 L23.74375,13.976765 C23.9441162,13.976765 24.10625,13.818413 24.10625,13.6231064 C24.10625,13.4277999 23.9441162,13.2694479 23.74375,13.2694479 L11.5734497,13.2694479 C11.3730835,13.2694479 11.2109497,13.4277999 11.2109497,13.6231064 C11.2109497,13.818413 11.3730835,13.976765 11.5734497,13.976765 Z" id="Path"></path>
                        <path d="M11.5734497,10.1179497 L23.74375,10.1179497 C23.9441162,10.1179497 24.10625,9.95959771 24.10625,9.76429116 C24.10625,9.56898461 23.9441162,9.41063262 23.74375,9.41063262 L11.5734497,9.41063262 C11.3730835,9.41063262 11.2109497,9.56898461 11.2109497,9.76429116 C11.2109497,9.95959771 11.3730835,10.1179497 11.5734497,10.1179497 Z" id="Path"></path>
                        <path d="M11.5734497,6.25896175 L23.74375,6.25896175 C23.9441162,6.25896175 24.10625,6.10060976 24.10625,5.90530321 C24.10625,5.70999666 23.9441162,5.55164467 23.74375,5.55164467 L11.5734497,5.55164467 C11.3730835,5.55164467 11.2109497,5.70999666 11.2109497,5.90530321 C11.2109497,6.10060976 11.3730835,6.25896175 11.5734497,6.25896175 Z" id="Path"></path>
                    </g>
                </g>
            </g>
        </g>
    </g>
</svg>
