<?xml version="1.0" encoding="UTF-8"?>
<svg width="31px" height="30px" viewBox="0 0 31 30" version="1.1" xmlns="http://www.w3.org/2000/svg" xmlns:xlink="http://www.w3.org/1999/xlink">
    <g id="Page-1" stroke="none" stroke-width="1" fill="none" fill-rule="evenodd">
        <g id="Extra01_Benefacts_Analytics_Analysis_003" transform="translate(-720.000000, -15.000000)" fill="#FFFFFF">
            <g id="Header">
                <g id="Directory_Icon" transform="translate(676.000000, 0.000000)">
                    <g id="noun_advertisement_648541_000000" transform="translate(44.000000, 15.000000)">
                        <path d="M0.227941176,8.04545455 L9.66470588,8.04545455 L9.66470588,0.318181818 L0.227941176,0.318181818 L0.227941176,8.04545455 Z M1.50441176,1.54545455 L8.43382353,1.54545455 L8.43382353,6.77272727 L1.50441176,6.77272727 L1.50441176,1.54545455 Z" id="Shape" fill-rule="nonzero"></path>
                        <rect id="Rectangle" x="11.9897059" y="0.272727273" width="18.7367647" height="1.27272727"></rect>
                        <rect id="Rectangle" x="11.9897059" y="3.54545455" width="13.8588235" height="1.27272727"></rect>
                        <rect id="Rectangle" x="11.9897059" y="6.77272727" width="17.1411765" height="1.27272727"></rect>
                        <path d="M0.227941176,18.8636364 L9.66470588,18.8636364 L9.66470588,11.1363636 L0.227941176,11.1363636 L0.227941176,18.8636364 Z M1.50441176,12.4090909 L8.43382353,12.4090909 L8.43382353,17.6363636 L1.50441176,17.6363636 L1.50441176,12.4090909 Z" id="Shape" fill-rule="nonzero"></path>
                        <rect id="Rectangle" x="11.9897059" y="11.1363636" width="15.3632353" height="1.27272727"></rect>
                        <rect id="Rectangle" x="11.9897059" y="14.3636364" width="18.7367647" height="1.27272727"></rect>
                        <rect id="Rectangle" x="11.9897059" y="17.5909091" width="15.3632353" height="1.27272727"></rect>
                        <path d="M0.227941176,29.7272727 L9.66470588,29.7272727 L9.66470588,22 L0.227941176,22 L0.227941176,29.7272727 Z M1.50441176,23.2272727 L8.43382353,23.2272727 L8.43382353,28.4545455 L1.50441176,28.4545455 L1.50441176,23.2272727 Z" id="Shape" fill-rule="nonzero"></path>
                        <rect id="Rectangle" x="11.9897059" y="21.9545455" width="15.3632353" height="1.27272727"></rect>
                        <rect id="Rectangle" x="11.9897059" y="25.2272727" width="18.7367647" height="1.27272727"></rect>
                        <rect id="Rectangle" x="11.9897059" y="28.4545455" width="15.3632353" height="1.27272727"></rect>
                    </g>
                </g>
            </g>
        </g>
    </g>
</svg>
