<?xml version="1.0" encoding="UTF-8"?>
<svg width="15px" height="15px" viewBox="0 0 15 15" version="1.1" xmlns="http://www.w3.org/2000/svg" xmlns:xlink="http://www.w3.org/1999/xlink">
    <g id="Page-1" stroke="none" stroke-width="1" fill="none" fill-rule="evenodd">
        <g id="Extra01_Benefacts_Analytics_Analysis_003" transform="translate(-1188.000000, -115.000000)" fill="#FFFFFF" fill-rule="nonzero">
            <g id="Download-Button" transform="translate(991.000000, 103.000000)">
                <g id="noun_Download_2176275" transform="translate(197.000000, 12.000000)">
                    <path d="M7.5192236,0.326086957 C7.226912,0.330586957 6.9913736,0.558736957 6.9913736,0.839986957 C6.9913736,0.842686957 6.9913736,0.844936957 6.9913736,0.847636957 L6.9913736,0.847186957 L6.9913736,9.88318696 L3.6197024,6.64948696 C3.522578,6.55633696 3.388856,6.49918696 3.241058,6.49918696 C2.9449928,6.49918696 2.7052316,6.72958696 2.7052316,7.01308696 C2.7052316,7.15528696 2.7652892,7.28353696 2.8624136,7.37668696 L7.1485556,11.487437 C7.1499632,11.488787 7.1523092,11.490587 7.1546552,11.492387 L7.1555936,11.493287 C7.1607548,11.498237 7.1663852,11.503187 7.1720156,11.508137 L7.1724848,11.508587 C7.1795228,11.514887 7.18703,11.520737 7.1945372,11.527037 L7.1954756,11.527937 C7.1992292,11.530637 7.2043904,11.534237 7.2095516,11.537837 L7.2109592,11.538737 C7.2179972,11.543687 7.226912,11.549987 7.236296,11.555837 L7.238642,11.557187 C7.243334,11.560337 7.250372,11.564387 7.2578792,11.568437 L7.2602252,11.569787 C7.2658556,11.572937 7.273832,11.577437 7.2822776,11.581487 L7.2850928,11.582837 C7.2893156,11.585087 7.2968228,11.588687 7.30433,11.591387 L7.3076144,11.592737 C7.3123064,11.594987 7.320752,11.598587 7.3291976,11.602187 L7.332482,11.603537 C7.3376432,11.605787 7.3470272,11.608487 7.3564112,11.611637 L7.3601648,11.612537 C7.3639184,11.613887 7.3714256,11.616587 7.3789328,11.618837 L7.3826864,11.619737 C7.3878476,11.621087 7.3972316,11.623787 7.4066156,11.625587 L7.4099,11.626037 C7.414592,11.627387 7.4235068,11.629187 7.4319524,11.630537 L7.4352368,11.630987 C7.440398,11.631887 7.4493128,11.633237 7.4582276,11.634137 L7.4610428,11.634587 C7.4676116,11.635487 7.4769956,11.636387 7.4863796,11.636837 L7.4877872,11.636837 C7.4962328,11.637287 7.5056168,11.637737 7.51547,11.637737 L7.5159392,11.637737 C7.5196928,11.637737 7.5243848,11.638187 7.5286076,11.638187 C7.5328304,11.638187 7.5375224,11.638187 7.5422144,11.637737 L7.5417452,11.637737 C7.5581672,11.637287 7.57412,11.636387 7.5896036,11.634587 L7.5872576,11.635037 C7.5914804,11.634587 7.5924188,11.634137 7.5938264,11.634137 L7.590542,11.634587 C7.604618,11.632787 7.6158788,11.630987 7.6271396,11.628737 L7.6238552,11.629187 C7.6360544,11.626937 7.6445,11.625137 7.6529456,11.623337 L7.649192,11.624237 C7.6595144,11.621987 7.6665524,11.620187 7.6731212,11.618387 L7.6693676,11.619287 C7.6839128,11.615237 7.6947044,11.612087 7.7050268,11.608937 L7.7012732,11.609837 C7.7115956,11.606687 7.7176952,11.603987 7.724264,11.601737 L7.7209796,11.603087 C7.7341172,11.598137 7.7435012,11.594537 7.752416,11.590037 L7.7491316,11.591387 C7.766492,11.583737 7.7796296,11.577437 7.7927672,11.570687 L7.789952,11.572037 C7.792298,11.570687 7.7927672,11.570237 7.7932364,11.569787 L7.7913596,11.571137 C7.804028,11.564387 7.8138812,11.558087 7.8237344,11.551787 L7.8218576,11.553137 C7.8307724,11.547287 7.8378104,11.543237 7.8443792,11.538287 L7.8429716,11.539187 C7.8561092,11.529737 7.86737,11.521187 7.8781616,11.512187 L7.8776924,11.512637 C7.8786308,11.511737 7.8800384,11.510387 7.8809768,11.509487 C7.8898916,11.502287 7.8983372,11.495537 7.9058444,11.488337 L12.1915172,7.37803696 C12.291926,7.28443696 12.3538604,7.15393696 12.3538604,7.00948696 C12.3538604,6.72553696 12.1140992,6.49558696 11.818034,6.49558696 C11.8124036,6.49558696 11.8072424,6.49558696 11.801612,6.49603696 L11.8025504,6.49603696 C11.6580368,6.50008696 11.5280684,6.55858696 11.4342284,6.65083696 L8.0630264,9.88453696 L8.0630264,0.848536957 C8.0630264,0.846286957 8.0630264,0.844036957 8.0630264,0.841786957 C8.0630264,0.557836957 7.8232652,0.327886957 7.5272,0.327886957 C7.5243848,0.327886957 7.5215696,0.327886957 7.5187544,0.327886957 L7.5192236,0.327886957 L7.5192236,0.326086957 Z M0.5623952,13.692437 C0.5600492,13.692437 0.5577032,13.692437 0.554888,13.692437 C0.2588228,13.692437 0.0190616,13.922387 0.0190616,14.206337 C0.0190616,14.490287 0.259292,14.720237 0.554888,14.720237 C0.5577032,14.720237 0.5600492,14.720237 0.5628644,14.720237 L14.4915356,14.720237 C14.4938816,14.720237 14.4962276,14.720237 14.4990428,14.720237 C14.795108,14.720237 15.0348692,14.490287 15.0348692,14.206337 C15.0348692,13.922387 14.795108,13.692437 14.4990428,13.692437 C14.4962276,13.692437 14.4938816,13.692437 14.4910664,13.692437 L0.5623952,13.692437 Z" id="Shape"></path>
                </g>
            </g>
        </g>
    </g>
</svg>
