<?xml version="1.0" encoding="UTF-8"?>
<svg width="14px" height="13px" viewBox="0 0 14 13" version="1.1" xmlns="http://www.w3.org/2000/svg" xmlns:xlink="http://www.w3.org/1999/xlink">
    <g id="Page-1" stroke="none" stroke-width="1" fill="none" fill-rule="evenodd">
        <g id="Extra01_Benefacts_Analytics_Analysis_003" transform="translate(-1191.000000, -187.000000)" fill="#2F3540" fill-rule="nonzero">
            <g id="Expand_Button" transform="translate(1107.000000, 172.000000)">
                <g id="noun_expand_1640466_000000" transform="translate(84.000000, 15.000000)">
                    <path d="M13.6888889,0.722222222 L13.6888889,3.69055556 C13.6888889,3.92987895 13.4799551,4.12388889 13.2222222,4.12388889 C12.9644893,4.12388889 12.7555556,3.92987895 12.7555556,3.69055556 L12.7555556,1.76944444 L8.50111111,5.72 C8.38301499,5.82966069 8.21088613,5.87248806 8.04956382,5.83234946 C7.88824152,5.79221087 7.76223445,5.67520431 7.71900827,5.52540502 C7.67578209,5.37560573 7.72190387,5.2157718 7.84,5.10611111 L12.0944444,1.15555556 L10.0255556,1.15555556 C9.76782267,1.15555556 9.55888889,0.961545614 9.55888889,0.722222222 C9.55888889,0.482898831 9.76782267,0.288888889 10.0255556,0.288888889 L13.2222222,0.288888889 C13.4799551,0.288888889 13.6888889,0.482898831 13.6888889,0.722222222 Z M5.49888889,7.28 L1.24444444,11.2305556 L1.24444444,9.30944444 C1.24444444,9.07012105 1.03551066,8.87611111 0.777777778,8.87611111 C0.520044895,8.87611111 0.311111111,9.07012105 0.311111111,9.30944444 L0.311111111,12.2777778 C0.311111111,12.5171012 0.520044895,12.7111111 0.777777778,12.7111111 L3.97444444,12.7111111 C4.23217733,12.7111111 4.44111111,12.5171012 4.44111111,12.2777778 C4.44111111,12.0384544 4.23217733,11.8444444 3.97444444,11.8444444 L1.90555556,11.8444444 L6.16,7.89388889 C6.27809613,7.7842282 6.32421791,7.62439427 6.28099173,7.47459498 C6.23776555,7.32479569 6.11175848,7.20778913 5.95043618,7.16765054 C5.78911387,7.12751194 5.61698501,7.17033931 5.49888889,7.28 Z" id="Shape"></path>
                </g>
            </g>
        </g>
    </g>
</svg>
