<?xml version="1.0" encoding="UTF-8"?>
<svg width="30px" height="30px" viewBox="0 0 30 30" version="1.1" xmlns="http://www.w3.org/2000/svg" xmlns:xlink="http://www.w3.org/1999/xlink">
    <g id="Page-1" stroke="none" stroke-width="1" fill="none" fill-rule="evenodd">
        <g id="Extra01_Benefacts_Analytics_Analysis_003" transform="translate(-1084.000000, -13.000000)" fill="#FFFFFF" fill-rule="nonzero">
            <g id="Header">
                <g id="Help_Icon" transform="translate(1039.000000, 0.000000)">
                    <g id="noun_Help-Comment_930812_000000" transform="translate(45.000000, 13.000000)">
                        <path d="M16.5,21.0200669 C16.5,21.8729097 15.85,22.5250836 15,22.5250836 C14.15,22.5250836 13.5,21.8729097 13.5,21.0200669 C13.5,20.1672241 14.15,19.5150502 15,19.5150502 C15.85,19.5150502 16.5,20.1672241 16.5,21.0200669 Z M15,7.97658863 C12.5,7.97658863 10.5,9.98327759 10.5,12.4916388 C10.5,13.0434783 10.95,13.4949833 11.5,13.4949833 C12.05,13.4949833 12.5,13.0434783 12.5,12.4916388 C12.5,11.0869565 13.6,9.98327759 15,9.98327759 C16.4,9.98327759 17.5,11.0869565 17.5,12.4916388 C17.5,13.8963211 16.4,15 15,15 C14.45,15 14,15.451505 14,16.0033445 L14,17.5083612 C14,18.0602007 14.45,18.5117057 15,18.5117057 C15.55,18.5117057 16,18.0602007 16,17.5083612 L16,16.9063545 C18,16.4553512 19.5,14.6488294 19.5,12.4916388 C19.5,9.98327759 17.5,7.97658863 15,7.97658863 Z M30,15 C30,23.277592 23.3,30 15.05,30 L2,30 C0.9,30 0,29.0964883 0,27.993311 L0,15 C0,6.72240803 6.7,0 14.95,0 C23.5395,0 30,6.92257525 30,15 Z M28,15 C28,7.97558528 22.387,2.00668896 14.95,2.00668896 C7.8,2.00668896 2,7.82608696 2,15 L2,27.993311 L15.05,27.993311 C22.2,27.993311 28,22.173913 28,15 Z" id="Shape"></path>
                    </g>
                </g>
            </g>
        </g>
    </g>
</svg>
