<?xml version="1.0" encoding="UTF-8"?>
<svg width="29px" height="24px" viewBox="0 0 29 24" version="1.1" xmlns="http://www.w3.org/2000/svg" xmlns:xlink="http://www.w3.org/1999/xlink">
    <g id="Page-1" stroke="none" stroke-width="1" fill="none" fill-rule="evenodd">
        <g id="Extra01_Benefacts_Analytics_Analysis_003" transform="translate(-601.000000, -18.000000)" fill="#FFFFFF" fill-rule="nonzero">
            <g id="Header">
                <g id="Home_icon" transform="translate(555.000000, 0.000000)">
                    <g id="noun_Home_1706892_000000" transform="translate(46.000000, 18.000000)">
                        <path d="M14.5195304,0.363723636 C14.6716463,0.366996364 14.8135687,0.417552727 14.9499992,0.511450909 L28.7249992,11.4205527 C29.0419293,11.6758618 29.0868938,12.1470255 28.8496085,12.4546618 C28.615738,12.7578255 28.1182757,12.8063709 27.8187492,12.5682982 L14.4968742,2.02281455 L1.17499916,12.5682982 C0.875472662,12.8063709 0.391691037,12.7560073 0.155467912,12.4546618 C-0.07898266,12.1555709 -0.05377441,11.6586982 0.268749162,11.4205527 L5.43437416,7.32963273 L5.43437416,1.09099636 C5.4344142,0.689351363 5.7589843,0.363763795 6.15937416,0.363723636 L9.05937416,0.363723636 C9.45976402,0.363763795 9.78433413,0.689351363 9.78437416,1.09099636 L9.78437416,3.88645091 L14.0437492,0.511450909 C14.2051052,0.404821818 14.3674145,0.360541818 14.5195304,0.363723636 Z M8.33437416,1.81826909 L6.88437416,1.81826909 L6.88437416,6.18190545 L8.33437416,5.03417818 L8.33437416,1.81826909 Z M23.5593742,10.1478145 L25.0093742,11.2955345 L25.0093742,22.9091709 C25.0093341,23.3108159 24.684764,23.6364035 24.2843742,23.6364436 L18.1218742,23.6364436 C17.7214843,23.6364035 17.3969142,23.3108159 17.3968742,22.9091709 L17.3968742,16.3637527 L11.5968742,16.3637527 L11.5968742,22.9091709 C11.5968341,23.3108159 11.272264,23.6364035 10.8718742,23.6364436 L4.70937416,23.6364436 C4.30898429,23.6364035 3.98441418,23.3108159 3.98437416,22.9091709 L3.98437416,11.2955345 L5.43437416,10.1478145 L5.43437416,22.1818982 L10.1468742,22.1818982 L10.1468742,15.63648 C10.1469142,15.234835 10.4714843,14.9092474 10.8718742,14.9092073 L18.1218742,14.9092073 C18.522264,14.9092474 18.8468341,15.234835 18.8468742,15.63648 L18.8468742,22.1818982 L23.5593742,22.1818982 L23.5593742,10.1478145 Z" id="Shape"></path>
                    </g>
                </g>
            </g>
        </g>
    </g>
</svg>
