<?xml version="1.0" encoding="UTF-8"?>
<svg width="21px" height="23px" viewBox="0 0 21 23" version="1.1" xmlns="http://www.w3.org/2000/svg" xmlns:xlink="http://www.w3.org/1999/xlink">
    <g id="Page-1" stroke="none" stroke-width="1" fill="none" fill-rule="evenodd">
        <g id="Extra01_Benefacts_Analytics_Dashboard_003-Copy" transform="translate(-1210.000000, -19.000000)" fill="#FFFFFF">
            <g id="noun_logout_410367_000000" transform="translate(1210.000000, 19.000000)">
                <path d="M19.5068807,23 L7.00321101,23 C6.66605505,23 6.39633028,22.72827 6.39633028,22.3886076 C6.39633028,22.0489451 6.66605505,21.7772152 7.00321101,21.7772152 L19.5068807,21.7772152 C19.6321101,21.7772152 19.7284404,21.6801688 19.7284404,21.5540084 L19.7284404,1.50421941 C19.7284404,1.37805907 19.6321101,1.28101266 19.5068807,1.28101266 L7.00321101,1.28101266 C6.66605505,1.28101266 6.39633028,1.0092827 6.39633028,0.669620253 C6.39633028,0.329957806 6.66605505,0.0582278481 7.00321101,0.0582278481 L19.5068807,0.0582278481 C20.296789,0.0582278481 20.9422018,0.708438819 20.9422018,1.50421941 L20.9422018,21.5540084 C20.9422018,22.349789 20.296789,23 19.5068807,23 Z" id="Path"></path>
                <path d="M14.4302752,11.5291139 C14.4302752,11.8687764 14.1605505,12.1405063 13.8233945,12.1405063 L1.91697248,12.1405063 L5.67385321,15.9253165 C5.9146789,16.1679325 5.9146789,16.5561181 5.67385321,16.7890295 C5.55825688,16.9054852 5.40412844,16.9637131 5.25,16.9637131 C5.09587156,16.9637131 4.94174312,16.9054852 4.81651376,16.7890295 L0.375688073,12.3248945 C0.163761468,12.1113924 0.0481651376,11.8299578 0.0481651376,11.5388186 C0.0481651376,11.2476793 0.163761468,10.9565401 0.375688073,10.7527426 L4.81651376,6.27890295 C5.05733945,6.03628692 5.43302752,6.03628692 5.67385321,6.27890295 C5.9146789,6.52151899 5.9146789,6.90970464 5.67385321,7.14261603 L1.91697248,10.9274262 L13.8233945,10.9274262 C14.1605505,10.9177215 14.4302752,11.1894515 14.4302752,11.5291139 Z" id="Path" transform="translate(7.239220, 11.530327) scale(-1, 1) translate(-7.239220, -11.530327) "></path>
            </g>
        </g>
    </g>
</svg>
