<?xml version="1.0" encoding="UTF-8"?>
<svg width="49px" height="57px" viewBox="0 0 49 57" version="1.1" xmlns="http://www.w3.org/2000/svg" xmlns:xlink="http://www.w3.org/1999/xlink">
    <g id="Page-1" stroke="none" stroke-width="1" fill="none" fill-rule="evenodd">
        <g id="Extra01_Benefacts_Homepage_003" transform="translate(-98.000000, -196.000000)" fill="#2F3540">
            <g id="Help_Icon" transform="translate(122.500000, 224.500000) scale(-1, 1) translate(-122.500000, -224.500000) translate(98.000000, 196.000000)">
                <path d="M34.7354681,1.26487748 L34.7354681,19.3891482 C38.2772991,20.3955659 40.8703082,23.588098 40.8703082,27.3786464 C40.8703082,31.9760793 37.0601115,35.7042007 32.3601334,35.7042007 C30.7111752,35.7042007 29.1773161,35.2380397 27.8748479,34.4439907 C27.8748479,34.4434072 27.8748479,34.4434072 27.8760406,34.4422404 C23.9650577,37.5023337 19.2364539,39.7631272 14.0361229,40.9953326 C13.1403778,41.2071179 12.2243562,41.3891482 11.3142982,41.537923 C11.2469086,41.5484247 11.179519,41.5525088 11.1133221,41.5525088 C10.5282849,41.5525088 10.0112336,41.1388565 9.91283287,40.5554259 C9.80310111,39.9054842 10.2521664,39.2905484 10.9165206,39.1826138 C11.7681345,39.0455076 12.6245193,38.8745624 13.4624166,38.676196 C18.1480819,37.5665111 22.4145003,35.5665111 25.9724332,32.8704784 C26.1835475,33.1085181 26.5461394,33.4527421 26.8860693,33.7351225 C27.233752,34.0239207 27.5701037,34.2549592 27.876637,34.4399067 C29.9138309,32.8453909 31.7351395,31.0385064 33.2749623,29.0390898 C33.681089,28.5134189 33.5731464,27.7654609 33.0358186,27.3693116 C32.4978945,26.9731622 31.7339467,27.0775963 31.3296091,27.6038506 C29.8190083,29.5665111 28.0132053,31.3313886 25.9783969,32.8710618 C24.6592303,31.4049008 23.8517477,29.4854142 23.8517477,27.3768961 C23.8517477,23.5863477 26.4435641,20.3932322 29.9865878,19.3873979 L29.9865878,0.161610268 C29.1230466,0.0583430572 28.2439998,0 27.3506402,0 C17.5266662,0 8.46663989,7.2176196 6.58569446,15.1656943 C6.1682367,16.9323221 5.69531668,21.5484247 5.69531668,21.5484247 L0.134182854,32.31972 C0.0435348815,32.5175029 0,32.7462077 0,32.9824971 C0,33.9224037 0.775875079,34.6878646 1.74258799,34.6878646 L5.69472032,34.6878646 L5.69472032,40.9778296 C5.69472032,45.9002334 7.88875907,49.2555426 14.2275571,49.2555426 L15.730405,49.2555426 L15.730405,57 L40.7200234,57 L40.7200234,39.0221704 C45.7587386,35.1470245 49,27.9416569 49,21.1861144 C49,12.0210035 43.0577869,4.21878646 34.7354681,1.26487748 Z" id="Path"></path>
            </g>
        </g>
    </g>
</svg>
