<?xml version="1.0" encoding="UTF-8"?>
<svg width="25px" height="25px" viewBox="0 0 25 25" version="1.1" xmlns="http://www.w3.org/2000/svg" xmlns:xlink="http://www.w3.org/1999/xlink">
    <g id="Page-1" stroke="none" stroke-width="1" fill="none" fill-rule="evenodd">
        <g id="Extra01_Benefacts_Homepage_003" transform="translate(-113.000000, -572.000000)" fill="#FFFFFF">
            <g id="Report_tile" transform="translate(85.000000, 552.000000)">
                <g id="Report_Icon_Square">
                    <g id="report_icon" transform="translate(28.000000, 20.000000)">
                        <path d="M24.6875,0.304431463 L5.75836181,0.304431463 C5.58563231,0.304431463 5.44586181,0.440941799 5.44586181,0.609309512 L5.44586181,2.37847305 L0.274047844,3.00397174 C0.191955563,3.01379692 0.116882313,3.05533058 0.0659179688,3.11904534 C0.014953625,3.18276009 -0.0079345625,3.26374332 0.00244140625,3.34398223 L2.68432616,24.4493438 C2.69439697,24.5298804 2.73712156,24.6031226 2.80303953,24.6528439 C2.85797116,24.6945265 2.92541503,24.7167076 2.99438475,24.7167076 C3.0078125,24.7167076 3.02124022,24.7158144 3.03466794,24.7141768 L14.9789428,23.1969322 C14.9934578,23.1950899 15.0050354,23.1873303 15.0187683,23.1836831 L24.6875,23.1836831 C24.8602295,23.1836831 25,23.0471727 25,22.878805 L25,0.609309512 C25,0.440941799 24.8602295,0.304431463 24.6875,0.304431463 Z M3.26568603,24.0698838 L0.66101075,3.57144985 L5.44586181,2.99276957 L5.44586181,22.878805 C5.44586181,23.0471727 5.58563231,23.1836831 5.75836181,23.1836831 L10.2422523,23.1836831 L3.26568603,24.0698838 Z M24.375,22.573927 L6.07086181,22.573927 L6.07086181,0.914187561 L24.375,0.914187561 L24.375,22.573927 Z" id="Shape" fill-rule="nonzero"></path>
                        <path d="M9.97711181,18.7022139 L20.46875,18.7022139 C20.6414795,18.7022139 20.78125,18.5657036 20.78125,18.3973359 C20.78125,18.2289682 20.6414795,18.0924578 20.46875,18.0924578 L9.97711181,18.0924578 C9.80438231,18.0924578 9.66461181,18.2289682 9.66461181,18.3973359 C9.66461181,18.5657036 9.80438231,18.7022139 9.97711181,18.7022139 Z" id="Path"></path>
                        <path d="M9.97711181,15.3756491 L20.46875,15.3756491 C20.6414795,15.3756491 20.78125,15.2391387 20.78125,15.070771 C20.78125,14.9024033 20.6414795,14.765893 20.46875,14.765893 L9.97711181,14.765893 C9.80438231,14.765893 9.66461181,14.9024033 9.66461181,15.070771 C9.66461181,15.2391387 9.80438231,15.3756491 9.97711181,15.3756491 Z" id="Path"></path>
                        <path d="M9.97711181,12.0489353 L20.46875,12.0489353 C20.6414795,12.0489353 20.78125,11.912425 20.78125,11.7440573 C20.78125,11.5756895 20.6414795,11.4391792 20.46875,11.4391792 L9.97711181,11.4391792 C9.80438231,11.4391792 9.66461181,11.5756895 9.66461181,11.7440573 C9.66461181,11.912425 9.80438231,12.0489353 9.97711181,12.0489353 Z" id="Path"></path>
                        <path d="M9.97711181,8.72237043 L20.46875,8.72237043 C20.6414795,8.72237043 20.78125,8.58586009 20.78125,8.41749238 C20.78125,8.24912466 20.6414795,8.11261433 20.46875,8.11261433 L9.97711181,8.11261433 C9.80438231,8.11261433 9.66461181,8.24912466 9.66461181,8.41749238 C9.66461181,8.58586009 9.80438231,8.72237043 9.97711181,8.72237043 Z" id="Path"></path>
                        <path d="M9.97711181,5.39565668 L20.46875,5.39565668 C20.6414795,5.39565668 20.78125,5.25914634 20.78125,5.09077863 C20.78125,4.92241091 20.6414795,4.78590058 20.46875,4.78590058 L9.97711181,4.78590058 C9.80438231,4.78590058 9.66461181,4.92241091 9.66461181,5.09077863 C9.66461181,5.25914634 9.80438231,5.39565668 9.97711181,5.39565668 Z" id="Path"></path>
                    </g>
                </g>
            </g>
        </g>
    </g>
</svg>
